<svg xmlns="http://www.w3.org/2000/svg" width="64" height="64" viewBox="0 0 64 64">
  <defs>
    <linearGradient id="leafGrad" x1="0%" y1="0%" x2="100%" y2="100%">
      <stop offset="0%" style="stop-color:#9ACD32"/>
      <stop offset="100%" style="stop-color:#43A047"/>
    </linearGradient>
    <linearGradient id="arcGrad" x1="0%" y1="0%" x2="100%" y2="100%">
      <stop offset="0%" style="stop-color:#FA8A21"/>
      <stop offset="100%" style="stop-color:#D94223"/>
    </linearGradient>
    <linearGradient id="bowlGrad" x1="0%" y1="0%" x2="100%" y2="0%">
      <stop offset="0%" style="stop-color:#FA8A21"/>
      <stop offset="100%" style="stop-color:#D94223"/>
    </linearGradient>
  </defs>
  <!-- Bloco esquerdo (haste do B) - Gradiente verde -->
  <path d="M18,10 L26,10 L26,54 L18,54 Z" fill="url(#leafGrad)"/>
  <!-- Curvas direitas (arcos do B) - Gradiente laranja -->
  <path d="M26,10 C38,10 44,18 44,26 C44,32 38,38 32,40 C40,42 46,50 46,56 C46,60 40,62 34,62 L26,62 L26,54 L26,10 Z" fill="url(#arcGrad)"/>
  <!-- Corte branco do F sobreposto -->
  <path d="M26,10 L38,10 L38,20 L32,20 L32,26 L38,26 L38,34 L32,34 L32,54 L26,54 Z" fill="#FFFFFF"/>
  <!-- Folha orgânica central -->
  <g transform="translate(28,28)">
    <path d="M-6,-12 C2,-18 10,-12 12,-4 C14,4 8,12 2,14 C-4,16 -10,10 -8,4 C-6,-2 -10,-8 -6,-12 Z" fill="#1B4B32"/>
    <path d="M-2,-10 C0,-4 2,2 0,10" stroke="#FFFFFF" stroke-width="0.8" fill="none" stroke-linecap="round" opacity="0.5"/>
    <path d="M-1,-6 C2,-5 5,-3 7,-2" stroke="#FFFFFF" stroke-width="0.5" fill="none" stroke-linecap="round" opacity="0.4"/>
    <path d="M-1,-2 C2,-1 5,1 7,3" stroke="#FFFFFF" stroke-width="0.5" fill="none" stroke-linecap="round" opacity="0.4"/>
  </g>
  <!-- Tigela/base crescente -->
  <path d="M14,40 C14,48 22,54 32,54 C42,54 50,48 50,40 C44,44 38,46 32,46 C26,46 20,44 14,40 Z" fill="url(#bowlGrad)"/>
  <!-- Tech Nodes -->
  <path d="M10,6 C6,10 8,14 12,16" stroke="#85C79E" stroke-width="1" fill="none" stroke-dasharray="2,2" stroke-linecap="round"/>
  <circle cx="10" cy="6" r="2" fill="#25B595"/>
  <path d="M54,6 C58,10 56,14 52,16" stroke="#85C79E" stroke-width="1" fill="none" stroke-dasharray="2,2" stroke-linecap="round"/>
  <circle cx="54" cy="6" r="2" fill="#25B595"/>
  <path d="M10,28 C6,30 4,34 8,36" stroke="#85C79E" stroke-width="1" fill="none" stroke-dasharray="1.5,2" stroke-linecap="round"/>
  <circle cx="10" cy="28" r="1.8" fill="#008080"/>
  <path d="M54,44 C58,46 60,50 56,52" stroke="#85C79E" stroke-width="1" fill="none" stroke-dasharray="1.5,2" stroke-linecap="round"/>
  <circle cx="54" cy="44" r="2" fill="#D94223"/>
  <path d="M10,52 C6,54 4,58 8,60" stroke="#85C79E" stroke-width="1" fill="none" stroke-dasharray="1.5,2" stroke-linecap="round"/>
  <circle cx="10" cy="52" r="1.5" fill="#25B595"/>
  <path d="M14,48 C12,50 12,52 14,54" stroke="#85C79E" stroke-width="0.8" fill="none" stroke-linecap="round"/>
</svg>
